<svg width="96" height="96" viewBox="0 0 96 96" fill="none" xmlns="http://www.w3.org/2000/svg">
  <rect width="96" height="96" rx="24" fill="#F8FAFC"/>
  <path d="M48 16C34.7452 16 24 26.7452 24 40V43.5C24 55.3741 30.4992 66.2951 40.9375 72.125L48 76L55.0625 72.125C65.5008 66.2951 72 55.3741 72 43.5V40C72 26.7452 61.2548 16 48 16Z" fill="#8D8A86"/>
  <ellipse cx="48" cy="42" rx="18" ry="21" fill="#F5D8C8"/>
  <path d="M32 36C35 28 41 24 48 24C55 24 61 28 64 36" stroke="#7B7773" stroke-width="8" stroke-linecap="round"/>
  <path d="M37 42C39.5 40.5 42 40 44.5 40" stroke="#7A5E52" stroke-width="2.5" stroke-linecap="round"/>
  <path d="M51.5 40C54 40 56.5 40.5 59 42" stroke="#7A5E52" stroke-width="2.5" stroke-linecap="round"/>
  <path d="M42 52C45.5 55 50.5 55 54 52" stroke="#D78478" stroke-width="3" stroke-linecap="round"/>
  <path d="M30 70C35 60 41 55 48 55C55 55 61 60 66 70" fill="#7D7A76"/>
</svg>
