<svg width="96" height="96" viewBox="0 0 96 96" fill="none" xmlns="http://www.w3.org/2000/svg">
  <rect width="96" height="96" rx="24" fill="#F8FAFC"/>
  <ellipse cx="48" cy="43" rx="18" ry="21" fill="#F5D8C8"/>
  <path d="M31 31C36 24 42 21 48 21C54 21 60 24 65 31" stroke="#A5A19C" stroke-width="8" stroke-linecap="round"/>
  <path d="M26 26H70L65 34H31L26 26Z" fill="#C8C4BE"/>
  <path d="M48 55C41 55 35 60 31 70H65C61 60 55 55 48 55Z" fill="#E6E7EB"/>
  <path d="M39 42C41 40.5 43.5 40 45 40" stroke="#7A5E52" stroke-width="2.5" stroke-linecap="round"/>
  <path d="M51 40C52.5 40 55 40.5 57 42" stroke="#7A5E52" stroke-width="2.5" stroke-linecap="round"/>
  <path d="M42 52C45.5 54 50.5 54 54 52" stroke="#B97469" stroke-width="3" stroke-linecap="round"/>
  <path d="M42 48C44 50.5 52 50.5 54 48" stroke="#69524A" stroke-width="3" stroke-linecap="round"/>
</svg>
